<?xml version="1.0" encoding="utf-8"?>
<svg version="1.1" xmlns:xlink="http://www.w3.org/1999/xlink" width="23px" height="25px" xmlns="http://www.w3.org/2000/svg">
  <g transform="matrix(1 0 0 1 -431 -193 )">
    <path d="M 22.4579124579125 18.6868686868687  C 22.8193041526375 19.0796857463524  23 19.5566778900112  23 20.1178451178451  C 23 20.679012345679  22.8193041526375 21.1560044893378  22.4579124579125 21.5488215488215  L 19.8249158249158 24.4107744107744  C 19.4635241301908 24.8035914702581  19.0246913580247 25  18.5084175084175 25  C 17.9921436588103 25  17.5533108866442 24.8035914702581  17.1919191919192 24.4107744107744  L 11.5 18.2239057239057  L 5.80808080808081 24.4107744107744  C 5.44668911335578 24.8035914702581  5.00785634118968 25  4.49158249158249 25  C 3.97530864197531 25  3.5364758698092 24.8035914702581  3.17508417508418 24.4107744107744  L 0.542087542087542 21.5488215488215  C 0.180695847362514 21.1560044893378  0 20.679012345679  0 20.1178451178451  C 0 19.5566778900112  0.180695847362514 19.0796857463524  0.542087542087542 18.6868686868687  L 6.23400673400673 12.5  L 0.542087542087542 6.31313131313131  C 0.180695847362514 5.92031425364759  0 5.44332210998878  0 4.88215488215488  C 0 4.32098765432099  0.180695847362514 3.84399551066217  0.542087542087542 3.45117845117845  L 3.17508417508418 0.589225589225589  C 3.5364758698092 0.196408529741862  3.97530864197531 0  4.49158249158249 0  C 5.00785634118968 0  5.44668911335578 0.196408529741862  5.80808080808081 0.589225589225589  L 11.5 6.77609427609428  L 17.1919191919192 0.589225589225589  C 17.5533108866442 0.196408529741862  17.9921436588103 0  18.5084175084175 0  C 19.0246913580247 0  19.4635241301908 0.196408529741862  19.8249158249158 0.589225589225589  L 22.4579124579125 3.45117845117845  C 22.8193041526375 3.84399551066217  23 4.32098765432099  23 4.88215488215488  C 23 5.44332210998878  22.8193041526375 5.92031425364759  22.4579124579125 6.31313131313131  L 16.7659932659933 12.5  L 22.4579124579125 18.6868686868687  Z " fill-rule="nonzero" fill="#000000" stroke="none" transform="matrix(1 0 0 1 431 193 )" />
  </g>
</svg>